# xmcd
#
# Track frame offsets: 
#        150
#        20727
#        43054
#        56397
#        70556
#        95445
#        111656
#        136016
#        150105
#        171514
#        188859
#        209960
#
# Disc length: 3040 seconds
#
# Revision: 0
# Processed by: cddbd v1.5.2PL0 Copyright (c) Steve Scherf et al.
# Submitted via: ExactAudioCopy v1.0b4
#
DISCID=a90bde0c
DTITLE=Danielle Nicole - Wolf Den
DYEAR=2015
DGENRE=Blues
TTITLE0=Wolf Den
TTITLE1=How You Gonna Do Me Likie That
TTITLE2=Take It All
TTITLE3=You Only Need Me When You're Down
TTITLE4=Just Give Me Tonight
TTITLE5=Easin' Into The Night
TTITLE6=Didn't Do You No Good
TTITLE7=Waiting On Your Love
TTITLE8=I Feel Like Breakin' Up Somebody's Home
TTITLE9=It Ain't You
TTITLE10=In My Dreams
TTITLE11=Fade Away
EXTD=
EXTT0=
EXTT1=
EXTT2=
EXTT3=
EXTT4=
EXTT5=
EXTT6=
EXTT7=
EXTT8=
EXTT9=
EXTT10=
EXTT11=
PLAYORDER=
